<svg xmlns="http://www.w3.org/2000/svg" width="2076" height="796" viewBox="0 0 2076 796" version="1.1"><path d="M 1342.500 1.088 C 1325.191 2.867, 1308.242 7.861, 1291.835 16.019 C 1270.871 26.442, 1257.272 38.140, 1250.106 51.913 C 1242.050 67.399, 1242.798 43.262, 1241.851 318 C 1241.385 453.025, 1241.253 570.250, 1241.559 578.500 C 1243.117 620.620, 1250.086 653.563, 1264.371 686.336 C 1275.129 711.017, 1287.441 729.415, 1305 747.049 C 1331.352 773.514, 1361.494 787.720, 1404 793.706 C 1414.714 795.215, 1424.501 795.469, 1472.500 795.483 C 1524.170 795.499, 1528.750 795.363, 1531.733 793.733 C 1537.334 790.672, 1538.433 787.186, 1538.266 773 C 1537.736 727.882, 1525.093 701.053, 1498.342 688.282 C 1488.783 683.719, 1478.713 682.078, 1460 682.032 C 1425.913 681.949, 1409.270 676.992, 1396.906 663.240 C 1387.422 652.692, 1381.862 637.949, 1375.557 606.629 C 1367.508 566.649, 1367.032 555.350, 1367.015 403.750 L 1367 278 1387.776 278 C 1411.475 278, 1421.868 276.957, 1432.906 273.470 C 1465.458 263.187, 1486.904 224.986, 1486.982 177.152 L 1487 165.804 1431.693 166.143 C 1369.532 166.525, 1372.089 166.811, 1370.082 159.253 C 1369.462 156.919, 1369.075 126.707, 1369.058 79.374 C 1369.044 37.505, 1368.752 2.517, 1368.409 1.624 C 1367.895 0.284, 1366.277 0.023, 1359.143 0.133 C 1354.389 0.206, 1346.900 0.636, 1342.500 1.088 M 1818.500 165.594 C 1773.623 169.038, 1738.109 177.174, 1696 193.660 C 1674.464 202.091, 1662.991 207.906, 1633.968 225.102 C 1613.006 237.521, 1610.160 239.500, 1611.252 240.896 C 1619.121 250.963, 1641.572 276.271, 1647.986 282.305 C 1671.787 304.696, 1694.309 308.353, 1724.977 294.808 C 1751.764 282.978, 1774.271 276.386, 1800 272.835 C 1814.714 270.804, 1852.325 271.092, 1863.374 273.321 C 1920.200 284.783, 1950.245 321.993, 1953.665 385.147 C 1954.293 396.735, 1954.283 396.808, 1951.694 399.397 C 1949.243 401.848, 1948.516 402, 1939.269 402 C 1933.867 402, 1925.859 401.551, 1921.474 401.002 C 1897.083 397.951, 1827.668 398.201, 1797.500 401.450 C 1719.133 409.888, 1654.899 436.156, 1619.527 474.231 C 1591.428 504.476, 1578.565 540.326, 1574.938 598.500 C 1572.981 629.880, 1576.006 654.785, 1584.538 677.527 C 1607.328 738.278, 1673.930 785.789, 1748.494 794.485 C 1781.698 798.357, 1815.491 794.903, 1847 784.417 C 1890.875 769.815, 1925.231 744.389, 1949.939 708.234 C 1957.572 697.064, 1959.721 694.388, 1960.462 695.128 C 1961.371 696.038, 1962.928 715.276, 1962.966 726.066 C 1963.009 738.091, 1964.407 745.737, 1968.024 753.713 C 1978.985 777.886, 2019.721 796, 2063.125 796 L 2076 796 2076.071 778.750 C 2076.502 673.473, 2075.703 394.373, 2074.939 383 C 2072.165 341.738, 2065.750 311.715, 2053.727 283.719 C 2031.195 231.254, 1989.135 195.530, 1929.764 178.430 C 1913.965 173.879, 1891.917 169.442, 1875.487 167.507 C 1862.695 166.001, 1828.263 164.844, 1818.500 165.594 M 26.125 166.733 L 20.751 167.113 21.266 184.307 C 21.665 197.656, 22.280 203.400, 24.015 210 C 34.047 248.157, 59.986 273.745, 99.268 284.238 L 107.500 286.436 230.750 286.748 C 298.537 286.920, 354 287.307, 354 287.609 C 354 288.522, 344.407 300.040, 269.556 388.998 C 157.747 521.879, 73.272 621.298, 40.565 658.500 C 22.010 679.604, 11.592 696.122, 5.401 714.250 L 1.559 725.500 1.199 747 C 0.910 764.247, 1.159 769.880, 2.458 775.478 C 4.738 785.306, 7.917 790.289, 13.736 793.154 L 18.500 795.500 291.791 795.759 L 565.081 796.018 564.490 780.259 C 563.622 757.115, 562.128 740.617, 560.021 730.906 C 552.751 697.396, 531.514 679.064, 495.269 675.016 C 489 674.316, 478.893 674.304, 463.769 674.979 C 439.242 676.074, 241.174 676.375, 223.289 675.345 L 212.078 674.699 214.271 671.599 C 216.416 668.566, 305.767 560.026, 465.054 366.956 C 553.826 259.357, 555.041 257.842, 559.136 249.730 C 564.811 238.489, 565.461 234.005, 565.482 206 C 565.499 181.779, 565.389 180.260, 563.289 175.711 C 561.485 171.803, 560.197 170.515, 556.289 168.711 L 551.500 166.500 291.500 166.427 C 148.500 166.386, 29.081 166.524, 26.125 166.733 M 873 167.057 C 806.612 170.138, 748.741 187.108, 703.500 216.760 C 630.018 264.922, 582.249 342.776, 569.900 434.500 C 567.015 455.934, 566.758 493.694, 569.353 515 C 576.723 575.506, 599.065 631.860, 632.390 674 C 692.826 750.422, 793.997 795.927, 903.605 795.990 C 959.056 796.021, 1001.501 786.510, 1050.526 763.067 C 1076.115 750.830, 1118.829 724.836, 1123.893 718.418 C 1127.317 714.079, 1126.492 706.874, 1121.313 695.881 C 1110.591 673.121, 1096.225 659.185, 1076.490 652.400 C 1069.628 650.040, 1066.877 649.647, 1057 649.616 C 1042.635 649.570, 1035.648 651.434, 1017 660.287 C 986.324 674.849, 960.730 681.871, 926.689 685.063 C 912.039 686.437, 866.350 685.780, 853.500 684.010 C 823.453 679.872, 798.701 671.352, 779.629 658.580 C 772.210 653.612, 748 631.822, 748 630.113 C 748 629.716, 754.862 627.077, 763.250 624.250 C 783.851 617.306, 1001.305 546.373, 1084.500 519.459 C 1121.350 507.538, 1153.116 496.749, 1155.091 495.483 C 1161.478 491.391, 1161.440 491.779, 1160.171 443.168 C 1158.909 394.806, 1157.957 385.633, 1151.466 359.282 C 1142.387 322.428, 1125.481 287.463, 1103.705 260.500 C 1094.847 249.533, 1074.502 229.984, 1062.865 221.257 C 1021.252 190.053, 967.567 170.281, 917 167.535 C 895.720 166.379, 889.146 166.307, 873 167.057 M 847.438 282.538 C 769.667 293.894, 713.606 354.330, 702.488 438.801 C 700.816 451.498, 700.549 481.420, 702.004 493 C 703.933 508.360, 706.305 519, 707.800 519 C 711.981 519, 1014.872 417.408, 1017.352 415.173 C 1021.552 411.391, 1022.317 408.159, 1021.646 397.029 C 1020.687 381.105, 1017.926 369.616, 1012.155 357.535 C 991.356 313.994, 954.026 288.638, 901.026 282.053 C 889.567 280.629, 858.591 280.910, 847.438 282.538 M 1901 494.593 C 1887.525 495.894, 1859.625 498.560, 1839 500.517 C 1818.375 502.475, 1796.550 504.784, 1790.500 505.649 C 1766.862 509.028, 1741.151 517.135, 1725.500 526.145 C 1700.265 540.672, 1685.660 557.125, 1677.913 579.756 C 1674.687 589.179, 1674.576 590.027, 1674.538 605.500 C 1674.494 623.886, 1675.595 629.357, 1682.086 643 C 1698.168 676.807, 1736.279 697.980, 1781.074 697.996 C 1814.059 698.007, 1842.902 686.284, 1871.256 661.340 C 1902.466 633.884, 1926.383 587.048, 1933.492 539.466 C 1935.121 528.565, 1935.794 498.077, 1934.496 493.988 C 1933.705 491.494, 1932.971 491.507, 1901 494.593" stroke="none" fill="#64449a" fill-rule="evenodd"/></svg>